inDegrees=no
num_controls=7
num_derivatives=13
num_iterations=132
num_multipliers=7
num_parameters=0
num_slacks=7
num_states=26
objective=0.444882
objective_accelerations=0.058459
objective_balance=0.003616
objective_effort=0.023449
objective_height=0.353872
objective_ligament=0.005487
solver_duration=1930.094994
status=Solve_Succeeded
success=true
DataType=double
version=3
OpenSimVersion=4.5
endheader
time	/jointset/ground_pelvis/pelvis_tilt/value	/jointset/ground_pelvis/pelvis_tx/value	/jointset/ground_pelvis/pelvis_ty/value	/jointset/hip_l/hip_flexion_l/value	/jointset/hip_l/hip_adduction_l/value	/jointset/hip_l/hip_rotation_l/value	/jointset/back/lumbar_extension/value	/jointset/patellofemoral_l/patellar_flexion_l/value	/jointset/knee_l/knee_flexion_l/value	/jointset/knee_l/knee_adduction_l/value	/jointset/knee_l/knee_rotation_l/value	/jointset/ankle_l/ankle_angle_l/value	/jointset/subtalar_l/subtalar_angle_l/value	/jointset/ground_pelvis/pelvis_tilt/speed	/jointset/ground_pelvis/pelvis_tx/speed	/jointset/ground_pelvis/pelvis_ty/speed	/jointset/hip_l/hip_flexion_l/speed	/jointset/hip_l/hip_adduction_l/speed	/jointset/hip_l/hip_rotation_l/speed	/jointset/back/lumbar_extension/speed	/jointset/patellofemoral_l/patellar_flexion_l/speed	/jointset/knee_l/knee_flexion_l/speed	/jointset/knee_l/knee_adduction_l/speed	/jointset/knee_l/knee_rotation_l/speed	/jointset/ankle_l/ankle_angle_l/speed	/jointset/subtalar_l/subtalar_angle_l/speed	/forceset/tau_hip_flexion_l	/forceset/tau_hip_adduction_l	/forceset/tau_hip_rotation_l	/forceset/tau_knee_flexion_l	/forceset/tau_ankle_angle_l	/forceset/tau_subtalar_angle_l	/forceset/tau_lumbar_extension	lambda_cid13_p0	lambda_cid13_p1	lambda_cid13_p2	lambda_cid13_p3	lambda_cid13_p4	lambda_cid13_p5	lambda_cid14_p0	/jointset/ground_pelvis/pelvis_tilt/accel	/jointset/ground_pelvis/pelvis_tx/accel	/jointset/ground_pelvis/pelvis_ty/accel	/jointset/hip_l/hip_flexion_l/accel	/jointset/hip_l/hip_adduction_l/accel	/jointset/hip_l/hip_rotation_l/accel	/jointset/back/lumbar_extension/accel	/jointset/patellofemoral_l/patellar_flexion_l/accel	/jointset/knee_l/knee_flexion_l/accel	/jointset/knee_l/knee_adduction_l/accel	/jointset/knee_l/knee_rotation_l/accel	/jointset/ankle_l/ankle_angle_l/accel	/jointset/subtalar_l/subtalar_angle_l/accel	gamma_cid13_p0	gamma_cid13_p1	gamma_cid13_p2	gamma_cid13_p3	gamma_cid13_p4	gamma_cid13_p5	gamma_cid14_p0
1.5	-0.3758980886617707	-0.02686152930726468	0.7591486495723456	1.122867694108347	-0.4345593399493654	-0.2108487102730425	-0.2256734840348721	0.8094623012477177	0.8094623012476611	-0.1287714936070062	-0.1460422031235097	0.1251525466074013	-0.0205138509949227	0.6966324581571965	0.282984026936567	0.5450445518559351	-2.507717962224317	0.2076168667145576	-0.7203964880421896	0.314707892044907	-2.028693059514931	-2.028693059515068	-0.1363634370119153	0.1346257203233484	-0.3849634339374983	0.04206753496664161	-0.1789750614089511	0.02443476959288288	-0.008309062432005156	-0.2011004594891683	0.03993322762439818	0.04776595471175688	0.1712689364317045	-19.18816321100291	-20.41143913262134	6.375093517939629	-7.314191920560319	-519.46530936465	-64.91244604775936	-24.73709416100063	0.7093311303964819	0.7162715858648506	-0.5327920821037143	-1.31046192374335	0.7184571102936953	-0.2056424318114232	1.48640437024914	-1.320569959312645	-1.320569959312591	0.1432447345735757	0.2206879468038092	-0.5245670679454932	0.5091103180982576	5.346284244150411e-07	3.11661069122575e-07	-3.249338823766698e-06	-1.737296661647915e-07	7.715220017958262e-07	-1.246723011718171e-07	4.853726545750052e-07
1.51	-0.3688963687417927	-0.02399609398236699	0.7645713920746487	1.097726533772947	-0.4324489987653574	-0.2180600567349029	-0.2224534918092976	0.7891115271498648	0.7891115271497788	-0.1301325791080976	-0.1446851986011336	0.1212768803537554	-0.02006981187412472	0.7036006649769925	0.2900712033246005	0.5393886297864712	-2.520166134537023	0.2144272524917666	-0.7217648289914529	0.3292560438520815	-2.041179444040969	-2.041179444041324	-0.1358558673411145	0.13677027340122	-0.3900926787302947	0.04674606521354306	-0.1725842550306099	0.02341707495048764	-0.007997884575877783	-0.1986707527474683	0.04044762247608182	0.04703954410274851	0.1661211169376446	-18.80068445253312	-20.16735935264271	6.340240926446923	-7.335676484839953	-515.4096449693385	-65.13483964437459	-25.65914353690823	0.6739931007115322	0.7001523382539574	-0.5991337472339451	-1.159728492421534	0.6589821295259474	-0.08577951769368616	1.433844203264822	-1.170422903411742	-1.170422903444421	0.004193062770027079	0.2100213078582309	-0.4955322205639479	0.4483128163122139	5.359705181339855e-07	5.701355059272484e-07	-2.991417500330745e-06	-1.023617394026198e-07	7.782555248030258e-07	-1.778287798023711e-08	4.871276663072781e-07
1.52	-0.361828281225029	-0.0210607445589927	0.769934147060684	1.072471344992941	-0.4302712231599588	-0.2252817565244977	-0.219089053342189	0.7686443391659195	0.7686443391658019	-0.1314886529165953	-0.1433070120840614	0.1173522358450582	-0.01957876976319248	0.709905977514404	0.2969668466318878	0.5330470486023593	-2.530523651145221	0.2211037509926328	-0.7224671535891121	0.343597140351785	-2.051975836733499	-2.051975836734072	-0.1353610984928454	0.1388621192622677	-0.39475908494778	0.0514681329934897	-0.1661934486522711	0.02239938030809391	-0.007686706719763008	-0.1962410460057673	0.04096201732776625	0.04631313349374235	0.1609732974435816	-18.41550976186645	-19.92454622749301	6.307499861020627	-7.395517207716195	-511.4120477840121	-65.41919114659729	-26.58052991911913	0.5767522739195773	0.6779649697156335	-0.6699239050332888	-0.8923307828417733	0.6916796550251385	-0.07243916149061395	1.444993308754914	-0.9825715926110355	-0.9825715926110337	0.1406845700672339	0.2101465034390267	-0.4319993528832169	0.5178178247072993	5.159968040371195e-07	8.191656767637113e-07	-2.637252282539815e-06	-2.555622988348234e-08	7.608207190588204e-07	7.677961646453353e-08	4.732124709023008e-07
1.53	-0.3547004020194939	-0.0180576865741536	0.7752300758746462	1.047123350263839	-0.4280272680038295	-0.2325084165285609	-0.2155824828915295	0.7480778351446155	0.7480778351444453	-0.132838756997973	-0.1419089591019682	0.1133830382335699	-0.01904027076250633	0.7155665948589938	0.3035835641747132	0.5260251792504758	-2.538695493493568	0.227657309557575	-0.7227421459773994	0.3576545861684446	-2.061023566300153	-2.061023566300671	-0.1346682774903855	0.1407472724621992	-0.3990242637105265	0.05621927498295329	-0.1603444450735252	0.02205608258067538	-0.007281802799470206	-0.1925409571611532	0.03950922288933604	0.0453623763023694	0.1561083938642318	-18.67153462964229	-19.46483916734699	6.231964611249479	-6.711014482881552	-507.3864505658256	-65.37788641497413	-27.50115489456288	0.5452549460681857	0.6443674699674105	-0.7352097659968364	-0.7226009145713039	0.6327874528265284	0.01377166773234736	1.376765676370724	-0.8207487115931592	-0.8207487115851267	0.03241833784373482	0.1771063364606216	-0.4153212154963039	0.4519401430821668	4.733750441359552e-07	1.058161315008951e-06	-2.180827926996724e-06	5.702671131493117e-08	7.177070640162473e-07	1.582447491158194e-07	4.426476804139954e-07
